<?xml version="1.0" encoding="UTF-8" standalone="no"?>
<!DOCTYPE svg PUBLIC "-//W3C//DTD SVG 20010904//EN"
              "http://www.w3.org/TR/2001/REC-SVG-20010904/DTD/svg10.dtd">

<svg xmlns="http://www.w3.org/2000/svg"
     width="256" height="256"
     viewBox="0 -200 1021 1280">
  <path id="Selection"
        fill="#663399" stroke="black" stroke-width="6"
        d="M 60.00,270.00
           C 60.00,270.00 102.00,274.00 102.00,274.00
             102.00,274.00 149.00,274.00 149.00,274.00
             149.00,274.00 193.00,268.92 193.00,268.92
             193.00,268.92 223.00,262.87 223.00,262.87
             227.82,261.69 233.14,260.71 236.61,256.87
             238.79,254.46 242.35,247.25 244.22,244.00
             244.22,244.00 260.86,214.00 260.86,214.00
             260.86,214.00 310.14,125.00 310.14,125.00
             310.14,125.00 326.26,96.00 326.26,96.00
             327.99,92.98 330.54,86.95 333.38,85.17
             335.64,83.76 339.38,84.00 342.00,84.00
             342.00,84.00 483.00,84.00 483.00,84.00
             484.71,84.00 488.21,83.87 489.79,84.60
             493.70,86.57 491.50,93.13 489.79,96.00
             489.79,96.00 472.63,122.00 472.63,122.00
             472.63,122.00 458.54,141.00 458.54,141.00
             437.47,166.74 412.75,189.43 386.00,209.12
             363.71,225.52 336.58,241.35 311.00,251.99
             311.00,251.99 281.00,263.33 281.00,263.33
             277.60,264.47 267.52,267.59 265.21,269.51
             262.00,272.17 253.69,288.37 251.22,293.00
             251.22,293.00 227.14,336.00 227.14,336.00
             227.14,336.00 165.86,446.00 165.86,446.00
             165.86,446.00 140.00,493.00 140.00,493.00
             140.00,493.00 89.23,585.00 89.23,585.00
             89.23,585.00 77.69,606.00 77.69,606.00
             76.80,607.63 74.07,611.49 74.59,613.28
             75.48,616.38 81.52,616.00 84.00,616.00
             84.00,616.00 231.00,616.00 231.00,616.00
             241.85,615.85 240.86,610.72 243.75,602.00
             243.75,602.00 247.80,592.00 247.80,592.00
             258.08,566.57 271.77,545.34 290.17,525.00
             322.60,489.16 367.61,465.12 415.00,456.58
             423.74,455.00 437.27,453.01 446.00,453.00
             446.00,453.00 462.00,453.00 462.00,453.00
             478.09,453.03 511.42,458.60 526.00,465.00
             523.90,471.59 518.57,477.26 514.67,483.00
             513.02,485.43 510.89,489.23 507.91,490.08
             505.90,490.65 493.33,487.71 490.00,487.28
             472.17,485.01 467.76,484.97 450.00,485.00
             441.01,485.01 440.68,486.00 433.00,486.84
             397.03,490.74 360.52,506.75 333.00,530.30
             333.00,530.30 315.99,547.00 315.99,547.00
             301.30,562.07 291.11,577.24 281.75,596.00
             280.02,599.48 273.44,611.20 276.52,614.40
             278.34,616.30 282.55,616.00 285.00,616.00
             285.00,616.00 522.00,616.00 522.00,616.00
             524.66,616.00 528.46,616.22 530.78,614.83
             534.66,612.49 538.85,596.87 540.86,592.00
             550.46,568.71 562.17,549.28 578.44,530.00
             613.91,487.96 668.28,459.30 723.00,453.83
             723.00,453.83 742.00,452.00 742.00,452.00
             766.40,451.72 789.53,454.56 813.00,461.42
             813.00,461.42 834.00,468.86 834.00,468.86
             836.52,469.90 841.12,472.39 843.79,471.45
             846.38,470.53 848.08,466.32 849.25,464.00
             849.25,464.00 857.14,448.00 857.14,448.00
             858.07,445.93 859.30,442.21 861.39,441.13
             863.76,439.90 866.86,441.73 869.00,442.76
             873.06,444.71 887.26,450.53 889.36,453.39
             891.72,456.60 888.76,460.97 887.25,464.00
             887.25,464.00 875.22,489.00 875.22,489.00
             875.22,489.00 862.26,515.00 862.26,515.00
             862.26,515.00 828.75,585.00 828.75,585.00
             828.75,585.00 819.22,605.00 819.22,605.00
             818.33,606.90 815.72,611.26 816.49,613.28
             817.69,616.39 823.32,615.99 826.00,616.00
             826.00,616.00 948.00,616.00 948.00,616.00
             948.00,616.00 973.00,616.00 973.00,616.00
             975.41,616.00 981.60,615.60 983.40,617.02
             985.38,618.59 985.00,622.70 985.00,625.00
             985.00,625.00 985.00,643.00 985.00,643.00
             984.96,644.95 985.10,647.63 983.40,648.98
             981.81,650.23 977.99,650.00 976.00,650.00
             976.00,650.00 807.00,650.00 807.00,650.00
             804.97,650.00 801.88,649.89 800.02,650.60
             794.58,652.67 790.40,664.70 787.75,670.00
             786.40,672.71 782.58,678.81 784.13,681.69
             785.60,684.43 790.35,683.99 793.00,684.00
             793.00,684.00 984.00,684.00 984.00,684.00
             984.00,684.00 984.00,687.00 984.00,687.00
             984.00,687.00 941.00,689.00 941.00,689.00
             941.00,689.00 926.00,690.00 926.00,690.00
             910.07,690.02 886.27,694.16 870.00,696.57
             870.00,696.57 854.00,698.43 854.00,698.43
             854.00,698.43 815.00,706.27 815.00,706.27
             815.00,706.27 780.00,714.13 780.00,714.13
             775.89,715.13 768.31,716.39 765.39,719.30
             763.27,721.42 756.65,736.19 754.75,740.00
             754.75,740.00 732.75,785.00 732.75,785.00
             732.75,785.00 655.25,944.00 655.25,944.00
             655.25,944.00 629.24,998.00 629.24,998.00
             629.24,998.00 622.75,1011.00 622.75,1011.00
             621.87,1012.73 620.42,1015.99 618.61,1016.85
             615.23,1018.44 606.81,1011.19 604.00,1009.12
             590.54,999.20 578.26,988.24 566.91,976.00
             542.83,950.03 524.62,921.71 511.14,889.00
             511.14,889.00 503.52,870.00 503.52,870.00
             503.52,870.00 500.09,857.00 500.09,857.00
             496.81,845.55 492.30,827.70 491.04,816.00
             491.04,816.00 491.04,808.00 491.04,808.00
             491.04,808.00 490.00,796.00 490.00,796.00
             489.95,763.68 489.58,741.81 498.42,710.00
             498.42,710.00 503.52,692.00 503.52,692.00
             504.25,689.79 505.40,686.35 507.41,685.02
             509.30,683.78 512.78,684.00 515.00,684.00
             515.00,684.00 733.00,684.00 733.00,684.00
             735.74,684.00 739.44,684.21 741.87,682.83
             745.34,680.84 750.69,668.14 752.75,664.00
             754.03,661.45 757.82,655.02 756.65,652.31
             755.45,649.53 750.50,650.00 748.00,650.00
             748.00,650.00 203.00,650.00 203.00,650.00
             203.00,650.00 76.00,650.00 76.00,650.00
             76.00,650.00 48.00,650.00 48.00,650.00
             45.46,649.99 41.52,650.32 39.60,648.40
             37.68,646.48 38.01,642.54 38.00,640.00
             38.00,640.00 38.00,623.00 38.00,623.00
             38.13,612.33 44.29,605.09 49.23,596.00
             49.23,596.00 78.58,543.00 78.58,543.00
             78.58,543.00 145.31,422.00 145.31,422.00
             145.31,422.00 178.78,362.00 178.78,362.00
             178.78,362.00 212.00,302.00 212.00,302.00
             212.00,302.00 220.30,287.00 220.30,287.00
             221.08,285.51 223.10,282.46 222.48,280.76
             221.31,277.57 214.42,279.34 212.00,279.80
             212.00,279.80 178.00,283.04 178.00,283.04
             178.00,283.04 166.00,283.04 166.00,283.04
             166.00,283.04 156.00,284.00 156.00,284.00
             156.00,284.00 135.00,283.00 135.00,283.00
             119.72,282.98 104.09,280.70 89.00,278.25
             89.00,278.25 70.00,274.09 70.00,274.09
             65.91,273.32 62.52,273.63 60.00,270.00 Z
           M 279.00,244.00
           C 289.69,243.48 311.74,231.39 322.00,226.25
             360.75,206.81 399.48,177.66 430.00,147.00
             442.03,134.92 452.98,121.32 463.60,108.00
             465.52,105.60 473.53,96.59 471.84,93.60
             470.87,91.90 467.67,92.05 466.00,92.00
             466.00,92.00 451.00,91.03 451.00,91.03
             451.00,91.03 428.00,91.03 428.00,91.03
             428.00,91.03 413.00,91.03 413.00,91.03
             413.00,91.03 402.00,92.00 402.00,92.00
             402.00,92.00 383.00,92.00 383.00,92.00
             377.03,91.99 366.36,89.62 361.63,93.73
             359.74,95.38 355.50,103.38 354.00,106.00
             354.00,106.00 338.58,134.00 338.58,134.00
             338.58,134.00 298.58,206.00 298.58,206.00
             294.20,213.74 280.42,236.90 279.00,244.00 Z
           M 735.00,484.14
           C 735.00,484.14 706.00,488.90 706.00,488.90
             669.34,497.85 631.07,519.23 606.43,548.00
             593.25,563.39 583.11,577.70 574.26,596.00
             572.60,599.43 566.04,612.10 569.60,614.98
             571.15,616.23 575.04,616.00 577.00,616.00
             577.00,616.00 767.00,616.00 767.00,616.00
             769.47,616.00 772.70,616.20 774.90,614.98
             778.99,612.71 784.62,598.76 786.84,594.00
             786.84,594.00 801.64,564.00 801.64,564.00
             801.64,564.00 818.25,529.00 818.25,529.00
             818.25,529.00 827.74,510.00 827.74,510.00
             828.85,507.70 830.88,503.80 830.08,501.22
             829.28,498.64 826.24,497.82 824.00,496.95
             824.00,496.95 808.00,491.58 808.00,491.58
             786.28,485.53 773.46,484.00 751.00,484.14
             751.00,484.14 735.00,484.14 735.00,484.14 Z
           M 533.11,717.60
           C 527.92,720.87 528.00,726.42 526.63,732.00
             523.98,742.77 521.02,761.05 521.00,772.00
             521.00,772.00 521.00,798.00 521.00,798.00
             521.05,828.20 533.82,869.10 547.27,896.00
             547.27,896.00 560.52,918.00 560.52,918.00
             569.25,931.16 581.40,946.55 593.00,957.17
             595.69,959.63 601.93,967.41 605.79,965.83
             608.62,964.68 612.80,955.01 614.14,952.00
             614.14,952.00 631.26,916.00 631.26,916.00
             631.26,916.00 700.89,772.00 700.89,772.00
             700.89,772.00 719.26,734.00 719.26,734.00
             720.79,730.86 725.57,722.62 724.31,719.31
             723.22,716.47 718.47,717.00 716.00,717.00
             716.00,717.00 593.00,717.00 593.00,717.00
             593.00,717.00 554.00,717.00 554.00,717.00
             548.36,717.00 538.18,716.47 533.11,717.60 Z" />
</svg>